<svg id="svg" version="1.1" xmlns="http://www.w3.org/2000/svg" xmlns:xlink="http://www.w3.org/1999/xlink" width="400" height="400.59303187546334" viewBox="0, 0, 400,400.59303187546334"><g id="svgg"><path id="path0" d="M175.897 147.371 C 167.224 148.278,161.135 150.999,154.390 156.984 C 153.301 157.950,152.409 158.849,152.409 158.980 C 152.409 159.112,150.841 161.388,148.925 164.039 L 145.441 168.860 145.356 165.453 C 145.309 163.579,145.309 159.411,145.356 156.189 L 145.441 150.333 144.700 150.285 C 144.292 150.258,142.157 150.213,139.956 150.185 C 137.044 150.147,135.599 149.999,134.655 149.640 C 132.873 148.963,115.629 148.893,115.075 149.560 C 114.820 149.868,114.771 155.169,114.884 170.313 L 115.036 190.653 115.905 192.361 C 118.594 197.650,128.199 209.040,136.546 216.838 C 141.530 221.495,146.676 225.945,147.078 225.945 C 147.262 225.945,147.374 222.271,147.385 215.938 C 147.420 194.182,148.098 188.610,151.565 181.602 C 156.676 171.270,174.433 169.968,179.329 179.566 C 181.516 183.851,181.461 183.009,181.764 216.901 C 181.905 232.557,182.129 246.356,182.262 247.564 L 182.506 249.761 185.322 251.375 C 190.936 254.592,204.794 261.127,214.741 265.248 C 223.298 268.794,238.125 274.277,239.155 274.277 C 240.253 274.277,247.375 266.296,250.114 261.996 C 251.505 259.811,252.465 260.185,251.441 262.512 C 250.780 264.012,250.461 278.452,251.074 279.066 C 251.763 279.754,270.184 279.423,270.776 278.712 C 271.247 278.146,271.588 278.111,276.359 278.146 C 279.154 278.167,281.531 278.094,281.640 277.985 C 281.875 277.750,281.862 278.741,282.328 225.286 C 282.530 202.173,282.630 183.198,282.551 183.119 C 282.162 182.730,249.881 182.899,249.633 183.291 C 249.493 183.511,249.376 193.766,249.371 206.079 C 249.361 236.257,248.773 241.248,244.419 248.129 C 239.542 255.837,225.988 257.961,220.075 251.943 C 215.359 247.144,215.116 245.078,214.835 207.413 C 214.604 176.375,214.369 173.105,211.866 166.191 C 211.304 164.640,210.914 163.191,210.999 162.971 C 211.380 161.976,205.397 155.287,202.090 153.012 C 195.791 148.678,185.202 146.397,175.897 147.371 M115.048 234.347 C 115.048 242.691,115.133 245.239,115.419 245.424 C 115.623 245.556,122.761 245.687,131.283 245.716 C 151.508 245.785,151.009 246.125,140.029 239.744 C 131.795 234.959,125.799 231.091,119.711 226.638 C 117.592 225.088,115.677 223.751,115.454 223.665 C 115.115 223.535,115.048 225.303,115.048 234.347 M184.729 261.532 C 184.729 263.444,188.410 269.695,190.968 272.127 C 200.464 281.153,220.023 284.156,232.022 278.429 C 234.287 277.348,234.387 277.081,232.691 276.643 C 221.716 273.807,204.321 268.330,193.625 264.341 C 186.971 261.860,184.729 261.152,184.729 261.532 " stroke="none" fill="#f3c304" fill-rule="evenodd"></path><path id="path1" d="M181.360 107.700 C 181.123 108.072,180.042 111.179,178.957 114.603 C 177.873 118.028,176.803 121.110,176.581 121.452 C 176.184 122.062,175.948 122.076,163.181 122.255 C 140.467 122.575,125.949 124.105,111.638 127.690 C 69.825 138.164,60.695 163.875,87.119 196.738 C 92.603 203.559,111.128 221.181,114.988 223.248 C 115.415 223.477,117.685 225.057,120.032 226.758 C 129.616 233.704,142.185 241.296,153.299 246.849 C 156.805 248.601,159.745 250.146,159.832 250.282 C 160.348 251.093,181.858 260.391,185.521 261.387 C 186.364 261.616,190.100 262.925,193.823 264.296 C 206.535 268.978,233.288 277.242,235.728 277.242 C 236.037 277.242,239.400 278.036,243.201 279.007 C 260.466 283.416,295.073 290.113,292.348 288.518 C 292.094 288.369,290.559 288.035,288.938 287.774 C 282.699 286.771,267.392 283.091,259.748 280.757 C 257.633 280.111,255.826 279.768,254.114 279.687 C 251.631 279.570,250.556 279.149,250.556 278.294 C 250.556 278.107,249.737 277.785,248.736 277.578 C 247.735 277.371,245.433 276.670,243.621 276.019 C 241.809 275.369,238.864 274.363,237.077 273.785 C 220.818 268.527,185.001 252.733,182.357 249.656 C 182.276 249.561,181.275 248.968,180.133 248.339 C 173.660 244.769,161.309 236.984,160.453 235.933 C 160.229 235.658,159.880 235.434,159.676 235.434 C 157.999 235.434,143.435 223.648,134.946 215.422 C 126.188 206.935,117.710 196.570,115.261 191.354 C 114.891 190.564,114.008 188.934,113.299 187.730 C 108.009 178.740,105.987 166.870,108.368 158.784 C 112.913 143.348,130.254 133.168,159.965 128.494 C 166.816 127.417,167.758 127.637,171.965 131.300 L 173.285 132.449 171.145 139.242 C 169.081 145.794,168.760 147.178,169.236 147.469 C 169.440 147.593,175.390 143.328,179.163 140.353 C 181.380 138.605,182.382 138.554,184.094 140.101 C 186.814 142.559,194.070 147.700,194.166 147.237 C 194.302 146.580,192.884 141.061,191.518 136.931 C 189.937 132.152,190.012 131.775,192.884 130.036 C 193.373 129.740,195.762 128.017,198.194 126.208 L 202.614 122.919 201.604 122.709 C 201.048 122.594,197.557 122.404,193.847 122.288 C 189.525 122.152,187.012 121.959,186.854 121.750 C 186.575 121.381,182.357 108.203,182.357 107.699 C 182.357 107.042,181.778 107.042,181.360 107.700 " stroke="none" fill="#049443" fill-rule="evenodd"></path><path id="path2" d="M195.613 0.426 C 195.245 0.795,195.100 1.469,195.079 2.912 C 195.063 4.001,194.918 7.161,194.756 9.933 C 194.188 19.650,194.145 28.952,194.659 30.720 C 196.194 36.001,204.810 38.632,210.993 35.707 C 214.439 34.077,215.140 32.421,215.566 24.901 C 216.292 12.120,216.671 1.902,216.436 1.453 C 216.064 0.744,207.543 0.200,207.135 0.859 C 207.045 1.005,206.701 7.244,206.370 14.724 C 205.746 28.841,205.625 30.033,204.798 30.192 C 203.761 30.392,203.719 29.112,204.304 15.101 C 204.946 -0.301,205.004 0.297,202.852 0.297 C 202.067 0.297,200.232 0.212,198.772 0.108 C 196.503 -0.053,196.046 -0.007,195.613 0.426 M224.495 2.481 C 224.021 3.052,218.193 35.159,218.408 36.015 C 218.763 37.433,224.974 38.680,225.931 37.526 C 226.127 37.290,226.671 35.055,227.141 32.559 C 228.616 24.729,228.587 24.725,229.507 32.913 C 230.236 39.404,230.095 39.179,233.845 39.845 C 239.235 40.802,238.369 42.421,241.365 25.797 C 242.673 18.540,244.029 11.392,244.378 9.912 C 245.321 5.918,244.658 4.747,241.448 4.743 C 240.831 4.742,239.821 4.601,239.204 4.429 C 236.930 3.798,236.939 3.782,235.571 11.564 C 235.127 14.092,234.666 16.269,234.546 16.402 C 234.285 16.691,233.427 11.402,233.065 7.266 C 232.824 4.518,232.742 4.246,231.938 3.528 C 230.645 2.373,225.218 1.610,224.495 2.481 M168.421 3.176 C 167.035 3.411,165.602 3.662,165.238 3.734 C 164.290 3.920,164.172 4.827,164.682 8.021 C 164.929 9.562,166.007 16.694,167.078 23.870 C 169.394 39.374,169.226 38.481,169.894 38.838 C 170.468 39.145,183.769 37.242,184.232 36.787 C 184.499 36.524,183.976 32.179,183.486 30.583 L 183.180 29.587 180.698 29.794 C 177.567 30.055,178.049 31.388,175.822 16.308 C 173.518 0.703,174.345 2.170,168.421 3.176 M147.961 7.268 C 140.637 9.342,141.007 9.178,140.906 10.381 C 140.835 11.220,142.537 24.137,145.034 41.713 C 145.532 45.215,145.254 45.081,149.657 43.944 C 154.890 42.593,154.917 42.571,154.634 39.923 C 154.254 36.368,154.252 36.382,155.203 35.921 C 156.431 35.325,156.808 35.687,157.756 38.373 C 158.591 40.740,159.028 41.317,159.822 41.104 C 165.328 39.626,167.459 38.975,167.800 38.664 C 168.214 38.288,155.119 7.854,153.939 6.449 C 153.357 5.756,153.253 5.770,147.961 7.268 M253.335 7.936 C 252.838 8.261,242.211 40.464,242.421 41.011 C 242.818 42.044,250.772 44.269,251.369 43.514 C 251.916 42.822,262.164 11.586,262.068 10.906 C 261.918 9.849,254.349 7.275,253.335 7.936 M264.972 11.638 C 264.194 14.486,257.376 44.542,257.376 45.124 C 257.376 46.237,257.933 46.560,263.846 48.874 C 270.438 51.454,270.318 51.445,271.501 49.444 C 274.018 45.189,287.403 20.643,287.435 20.224 C 287.470 19.769,281.237 17.020,278.981 16.496 C 278.216 16.318,271.801 27.832,270.918 30.969 C 270.783 31.449,270.483 32.113,270.251 32.444 C 270.019 32.774,269.830 33.282,269.830 33.572 C 269.830 33.862,269.685 34.099,269.509 34.099 C 269.147 34.099,269.353 32.857,270.027 30.986 C 270.990 28.313,274.298 15.830,274.217 15.178 C 274.146 14.614,266.539 11.069,265.194 10.974 C 265.172 10.972,265.072 11.271,264.972 11.638 M130.170 13.245 C 127.156 14.269,124.221 15.606,124.092 16.013 C 123.972 16.389,126.672 23.925,127.994 26.909 C 128.625 28.331,124.212 23.554,121.215 19.570 C 119.657 17.499,118.803 17.417,115.258 18.996 C 113.617 19.726,112.315 20.493,112.223 20.782 C 112.134 21.064,114.451 27.334,117.435 34.885 C 120.391 42.362,123.063 49.292,123.373 50.285 C 124.046 52.436,124.787 53.204,126.155 53.165 C 127.302 53.132,131.666 51.245,132.077 50.603 C 132.326 50.214,128.786 40.213,128.068 39.279 C 127.743 38.856,127.189 37.361,127.357 37.361 C 127.433 37.361,127.852 37.928,128.290 38.621 C 129.467 40.487,136.084 48.641,136.573 48.828 C 137.422 49.154,144.107 46.207,144.107 45.507 C 144.107 44.784,131.652 13.526,131.266 13.281 C 130.872 13.031,130.807 13.029,130.170 13.245 M154.014 27.422 C 154.483 28.534,154.482 28.624,153.997 28.979 C 152.459 30.103,152.052 29.412,151.255 24.314 C 150.205 17.597,150.204 17.600,151.926 22.090 C 152.801 24.374,153.740 26.773,154.014 27.422 M284.996 38.266 C 280.209 46.422,276.226 53.350,276.145 53.661 C 275.962 54.359,276.561 54.785,283.499 58.882 C 290.139 62.802,289.691 62.771,291.667 59.451 C 293.678 56.075,293.657 55.958,290.735 54.207 C 287.785 52.438,287.837 52.721,289.843 49.359 L 291.526 46.539 293.687 47.732 C 294.875 48.388,296.039 48.925,296.274 48.925 C 296.780 48.925,299.588 44.321,299.613 43.451 C 299.627 42.934,296.723 40.642,295.564 40.256 C 295.166 40.123,298.030 35.285,298.505 35.285 C 298.740 35.285,299.831 35.819,300.929 36.471 C 302.027 37.124,303.078 37.658,303.265 37.658 C 303.841 37.658,307.493 31.634,307.135 31.276 C 307.005 31.146,293.843 23.423,293.763 23.430 C 293.728 23.433,289.783 30.109,284.996 38.266 M98.592 27.673 C 93.421 28.991,89.387 33.447,89.411 37.812 C 89.429 41.108,97.557 56.513,101.512 60.748 C 107.248 66.889,120.708 60.156,119.649 51.676 C 119.271 48.651,110.324 32.421,107.450 29.547 C 105.475 27.572,101.929 26.822,98.592 27.673 M104.454 42.772 C 111.031 54.326,110.951 54.174,110.845 54.919 C 110.699 55.946,109.608 55.961,108.889 54.946 C 108.391 54.243,99.208 38.212,98.190 36.270 C 97.919 35.753,97.945 35.530,98.317 35.158 C 99.408 34.067,99.717 34.450,104.454 42.772 M302.001 49.101 C 296.294 56.852,291.585 63.300,291.539 63.429 C 291.456 63.659,292.253 64.298,296.881 67.710 L 299.174 69.400 303.256 63.860 C 308.683 56.495,308.494 56.710,309.084 57.199 C 310.043 57.995,309.577 58.937,305.415 64.604 C 303.134 67.711,301.232 70.373,301.190 70.519 C 301.078 70.900,308.011 75.986,308.354 75.774 C 308.638 75.598,313.828 68.605,315.789 65.754 C 316.772 64.326,316.827 64.114,316.827 61.774 L 316.827 59.303 317.893 59.303 C 322.817 59.304,328.045 49.938,325.518 45.641 C 324.434 43.797,313.707 34.952,312.611 34.999 C 312.484 35.004,307.709 41.350,302.001 49.101 M75.537 43.781 C 71.395 47.181,71.445 46.842,74.525 50.556 C 85.309 63.559,93.944 74.123,94.051 74.443 C 94.203 74.899,101.557 68.882,101.557 68.301 C 101.557 67.942,79.490 40.968,79.170 40.936 C 79.088 40.928,77.454 42.208,75.537 43.781 M317.213 46.612 C 318.463 47.863,314.580 53.009,313.038 52.146 C 312.281 51.723,312.364 51.512,314.362 48.772 C 316.213 46.233,316.566 45.966,317.213 46.612 M60.726 57.145 C 57.008 60.850,53.966 64.101,53.966 64.369 C 53.966 64.843,58.766 69.688,59.222 69.674 C 59.348 69.670,59.852 69.124,60.341 68.459 C 60.830 67.794,61.595 66.990,62.040 66.671 L 62.849 66.091 72.384 75.744 C 78.654 82.091,82.125 85.397,82.519 85.397 C 82.882 85.397,84.350 84.180,86.244 82.308 L 89.370 79.220 83.105 72.746 C 79.659 69.185,75.296 64.739,73.409 62.866 C 69.457 58.944,69.568 59.232,71.335 57.512 C 73.608 55.297,73.616 55.395,70.979 52.743 C 69.644 51.400,68.409 50.408,68.072 50.408 C 67.705 50.408,64.967 52.919,60.726 57.145 M333.505 55.727 C 332.122 56.174,328.876 58.678,327.617 60.269 C 324.870 63.745,324.618 65.160,325.697 71.060 C 326.813 77.164,326.609 78.533,324.276 80.581 C 323.113 81.602,322.620 81.727,321.700 81.235 C 320.741 80.722,321.036 80.049,323.202 77.815 C 325.844 75.091,325.849 75.128,322.290 71.603 L 319.301 68.643 317.152 70.934 C 312.903 75.461,312.316 77.913,314.435 82.283 C 317.576 88.764,324.171 91.744,328.672 88.718 C 334.881 84.545,336.931 79.856,335.373 73.388 C 334.022 67.775,334.298 65.754,336.609 64.349 C 337.425 63.853,337.654 63.824,338.152 64.155 C 339.079 64.770,339.014 65.007,337.439 66.774 C 335.513 68.935,335.466 68.765,338.941 72.207 L 341.930 75.167 344.008 72.943 C 346.610 70.158,346.983 69.444,346.983 67.244 C 346.983 61.237,338.609 54.082,333.505 55.727 M45.696 73.095 C 42.984 76.285,41.512 78.254,41.512 78.691 C 41.512 79.147,43.115 81.132,46.479 84.840 C 49.211 87.852,54.418 93.612,58.052 97.641 C 61.685 101.670,64.847 104.967,65.078 104.967 C 65.427 104.967,66.826 103.437,71.103 98.380 C 71.491 97.921,71.331 97.648,69.453 95.577 C 67.469 93.388,67.394 93.253,67.813 92.613 C 68.608 91.400,69.225 91.481,71.545 93.101 C 72.901 94.047,73.892 94.547,74.187 94.434 C 74.624 94.266,80.356 87.695,80.356 87.362 C 80.356 87.280,73.796 83.124,65.778 78.126 C 57.760 73.127,50.902 68.843,50.540 68.605 C 49.900 68.187,49.748 68.328,45.696 73.095 M352.409 73.218 C 349.676 74.965,326.612 94.529,326.612 95.100 C 326.612 95.710,331.717 102.293,332.193 102.296 C 332.445 102.298,359.239 80.227,359.502 79.801 C 359.644 79.570,354.616 73.316,353.932 72.873 C 353.460 72.568,353.405 72.580,352.409 73.218 M55.186 81.139 C 55.408 81.406,57.128 82.655,59.007 83.914 C 63.345 86.821,63.486 86.982,62.524 87.944 L 61.790 88.678 59.286 86.091 C 55.518 82.196,54.262 80.861,54.262 80.752 C 54.262 80.473,54.832 80.712,55.186 81.139 M362.194 87.357 C 358.350 89.542,358.224 89.790,359.572 92.496 C 360.641 94.640,361.295 94.117,348.396 101.428 C 342.123 104.984,336.870 108.082,336.723 108.313 C 336.348 108.903,340.558 116.531,341.259 116.531 C 341.409 116.531,346.834 113.529,353.315 109.859 C 359.796 106.190,365.211 103.188,365.347 103.188 C 365.484 103.188,365.991 103.971,366.475 104.929 C 367.823 107.600,368.602 107.680,372.079 105.501 C 373.907 104.355,374.504 103.828,374.404 103.447 C 374.289 103.007,364.727 85.974,364.609 85.999 C 364.586 86.004,363.499 86.615,362.194 87.357 M33.268 89.125 C 32.509 89.657,30.245 93.969,30.245 94.882 C 30.245 95.548,31.022 96.086,37.146 99.649 C 41.764 102.336,41.671 102.366,33.968 100.660 C 30.578 99.910,27.642 99.358,27.444 99.434 C 27.037 99.590,23.872 104.774,23.591 105.744 C 23.428 106.308,24.695 107.128,35.945 113.733 C 42.839 117.781,49.346 121.668,50.405 122.370 C 53.686 124.548,54.493 124.237,56.637 119.971 L 57.951 117.354 57.267 116.800 C 56.529 116.202,50.434 112.553,48.119 111.323 C 45.419 109.888,45.568 109.767,48.992 110.616 C 50.341 110.951,51.913 111.340,52.483 111.481 C 55.145 112.138,56.257 112.439,57.079 112.724 C 60.030 113.747,60.383 113.569,62.406 110.025 C 64.809 105.820,65.770 106.854,51.890 98.707 C 45.285 94.829,38.826 90.982,37.536 90.158 C 35.032 88.557,34.324 88.386,33.268 89.125 M375.678 107.549 C 375.037 107.991,369.684 112.537,362.283 118.922 C 359.491 121.331,357.396 122.600,353.234 124.403 C 349.766 125.905,347.221 127.238,347.220 127.551 C 347.220 128.109,350.438 134.768,350.827 135.013 C 351.160 135.223,352.768 134.627,356.928 132.749 C 360.698 131.047,363.203 130.097,364.461 129.894 C 365.497 129.726,370.749 128.970,376.130 128.214 C 381.512 127.458,385.946 126.813,385.983 126.781 C 386.021 126.749,385.264 124.997,384.301 122.887 C 382.121 118.109,382.968 118.344,375.031 120.313 C 371.520 121.185,371.765 120.793,376.996 117.181 C 380.720 114.610,380.648 114.916,378.596 110.415 C 376.978 106.867,376.849 106.740,375.678 107.549 M16.753 125.868 C 12.463 127.373,9.005 135.630,10.523 140.743 C 11.520 144.099,16.635 146.932,21.646 146.902 C 24.340 146.886,25.277 146.454,29.418 143.318 C 34.239 139.667,36.009 139.088,38.462 140.356 C 41.804 142.084,40.356 143.845,36.528 142.708 C 32.846 141.614,32.438 141.913,31.015 146.755 C 30.004 150.191,30.404 150.710,34.738 151.590 C 40.814 152.823,44.585 150.461,46.569 144.178 C 49.233 135.743,44.385 130.026,35.003 130.539 C 31.494 130.730,29.766 131.474,26.226 134.317 C 21.890 137.798,19.721 138.328,17.774 136.380 C 16.079 134.686,17.907 134.056,21.130 135.225 C 22.639 135.772,22.853 135.511,24.150 131.541 C 25.673 126.879,25.726 127.028,22.220 126.051 C 19.627 125.329,18.408 125.288,16.753 125.868 M382.950 142.507 C 360.371 148.013,358.340 149.197,358.340 156.857 C 358.340 166.102,363.268 169.794,372.784 167.678 C 389.938 163.863,394.541 161.245,394.897 155.104 C 395.364 147.022,389.556 140.896,382.950 142.507 M6.860 149.247 C 6.381 149.825,3.451 163.692,3.750 163.967 C 3.889 164.094,5.938 164.624,8.302 165.144 C 38.553 171.793,38.029 171.688,38.364 171.146 C 38.643 170.694,41.512 157.378,41.512 156.535 C 41.512 155.615,41.524 155.620,37.295 154.655 C 34.681 154.059,33.803 154.610,33.803 156.847 C 33.803 158.769,32.882 160.455,31.932 160.273 C 25.776 159.094,25.897 159.165,26.506 157.071 C 27.488 153.694,26.976 153.021,22.971 152.425 C 19.993 151.982,20.069 151.936,19.551 154.485 C 18.988 157.254,18.727 157.480,16.689 156.967 C 13.011 156.041,13.107 156.179,13.685 152.675 C 14.106 150.126,14.128 150.150,10.802 149.423 C 7.697 148.744,7.292 148.726,6.860 149.247 M145.589 159.437 C 145.589 164.953,145.694 168.138,145.869 167.961 C 146.685 167.139,152.113 159.338,152.113 158.987 C 152.113 158.576,146.928 151.271,146.342 150.857 C 146.173 150.737,145.934 150.637,145.812 150.635 C 145.689 150.632,145.589 154.593,145.589 159.437 M387.784 151.875 C 388.958 153.050,388.333 153.317,376.825 156.550 C 366.651 159.409,365.238 159.632,365.064 158.407 C 364.933 157.484,365.496 157.277,376.102 154.339 C 387.630 151.145,387.154 151.246,387.784 151.875 M211.199 163.529 C 211.289 164.018,211.761 165.552,212.247 166.938 C 214.508 173.387,214.637 175.342,214.976 208.154 C 215.138 223.892,215.411 238.236,215.583 240.030 C 216.417 248.737,220.343 254.282,226.136 254.935 L 227.428 255.081 227.416 230.209 C 227.396 187.770,227.011 185.036,219.410 173.462 C 215.830 168.011,210.931 162.085,211.199 163.529 M379.086 172.120 C 361.098 173.936,362.342 173.694,362.342 175.378 C 362.342 177.552,362.955 182.787,363.243 183.078 C 363.516 183.353,371.553 182.858,375.210 182.341 C 377.330 182.041,377.644 182.226,377.907 183.931 C 378.435 187.345,378.772 187.600,382.347 187.298 C 385.652 187.019,385.519 187.162,385.290 184.126 L 385.093 181.516 386.463 181.311 C 387.217 181.198,388.536 181.087,389.395 181.064 L 390.956 181.023 391.118 183.506 C 391.315 186.547,391.913 187.288,393.917 186.975 C 394.572 186.872,395.874 186.707,396.810 186.607 C 397.747 186.508,398.664 186.245,398.849 186.022 C 399.224 185.570,398.074 171.967,397.580 171.016 C 397.209 170.301,396.953 170.316,379.086 172.120 M6.470 172.387 C -1.507 174.571,-2.436 189.447,5.187 192.917 C 7.435 193.940,20.164 195.404,26.813 195.404 C 33.634 195.404,37.064 191.683,37.064 184.285 C 37.064 177.101,33.868 174.030,25.649 173.318 C 22.782 173.070,22.817 173.023,22.371 177.764 C 21.860 183.193,21.477 182.681,26.439 183.197 C 30.236 183.592,31.411 184.333,30.185 185.560 C 29.153 186.592,7.461 184.445,6.820 183.247 C 5.952 181.624,7.167 181.298,12.333 181.767 C 14.603 181.973,16.454 182.019,16.580 181.874 C 16.887 181.520,17.544 173.640,17.316 173.046 C 16.987 172.188,8.975 171.701,6.470 172.387 M166.550 173.475 C 166.254 173.658,164.606 174.004,162.886 174.244 C 156.212 175.174,153.168 177.600,150.618 184.019 C 148.121 190.304,147.708 194.248,147.639 212.466 L 147.586 226.390 150.508 228.856 C 153.514 231.393,158.825 235.141,159.410 235.139 C 159.945 235.136,160.113 232.501,160.119 224.018 C 160.137 195.243,164.658 185.764,178.124 186.262 L 181.226 186.377 181.053 185.298 C 180.152 179.662,177.086 175.535,172.701 174.056 C 170.502 173.315,167.298 173.012,166.550 173.475 M282.746 196.351 C 282.635 203.740,282.419 224.863,282.266 243.291 C 282.113 261.720,281.905 277.165,281.804 277.613 L 281.621 278.428 276.425 278.428 C 271.939 278.428,271.180 278.495,270.872 278.918 C 270.559 279.345,269.669 279.412,263.813 279.445 C 260.127 279.466,257.033 279.562,256.936 279.659 C 256.397 280.198,282.763 286.775,288.837 287.618 C 291.177 287.943,292.661 288.418,292.661 288.842 C 292.661 289.242,292.142 289.181,285.884 288.054 C 266.966 284.646,255.597 282.291,244.477 279.477 C 234.371 276.919,235.183 277.004,232.659 278.245 C 220.356 284.298,200.728 281.489,190.960 272.279 C 189.902 271.281,188.982 270.519,188.915 270.586 C 188.739 270.762,190.265 273.006,191.728 274.722 C 192.423 275.537,194.368 277.870,196.051 279.906 C 204.398 290.004,209.738 293.330,220.063 294.863 C 232.554 296.718,243.554 294.147,252.671 287.242 C 254.423 285.915,255.461 285.311,255.727 285.463 C 255.948 285.589,257.622 287.006,259.447 288.610 C 261.272 290.214,263.216 291.715,263.767 291.946 C 264.860 292.402,293.645 292.583,294.331 292.138 C 294.979 291.718,295.009 197.558,294.362 196.375 C 293.103 194.071,284.286 183.097,283.623 183.008 L 282.947 182.918 282.746 196.351 M17.939 200.315 C 9.622 200.855,2.321 201.306,1.715 201.316 C 0.133 201.342,-0.027 201.832,0.258 205.773 C 0.540 209.673,0.584 209.729,3.262 209.514 C 8.464 209.097,13.183 208.982,12.898 209.279 C 12.735 209.449,10.334 210.493,7.561 211.597 C 1.282 214.099,0.885 214.436,0.902 217.249 C 0.932 221.913,1.299 222.451,4.299 222.235 C 5.441 222.153,11.846 221.749,18.532 221.338 C 38.706 220.097,36.904 220.637,36.678 215.904 C 36.479 211.721,36.766 211.902,30.963 212.288 C 22.428 212.856,22.365 212.799,28.912 210.420 C 35.556 208.006,35.866 207.864,36.039 207.157 C 36.285 206.157,35.672 200.169,35.274 199.690 C 34.844 199.171,36.368 199.116,17.939 200.315 M369.755 199.808 C 365.651 200.723,363.303 204.072,363.006 209.431 C 362.559 217.511,365.998 221.081,374.720 221.589 C 377.907 221.775,377.861 221.848,377.887 216.571 L 377.910 212.157 374.115 211.836 C 370.036 211.490,369.220 211.153,369.596 209.967 C 369.902 209.005,370.386 208.984,381.495 209.462 C 392.785 209.948,393.569 210.071,393.422 211.330 C 393.296 212.410,392.710 212.537,387.665 212.572 L 383.485 212.602 383.293 215.493 C 382.822 222.604,382.484 222.192,388.652 222.031 C 397.099 221.812,399.852 219.093,399.852 210.971 C 399.852 203.904,397.234 200.839,390.595 200.133 C 387.134 199.765,371.072 199.514,369.755 199.808 M33.655 222.834 C 33.491 222.890,32.591 223.150,31.653 223.411 C 29.674 223.962,29.674 223.963,30.421 227.575 C 30.997 230.362,31.002 230.356,27.796 231.034 C 23.990 231.838,23.425 231.520,23.425 228.571 C 23.425 226.535,22.000 226.132,18.249 227.110 C 15.836 227.738,15.815 227.776,16.322 230.467 C 16.877 233.407,16.645 233.647,12.814 234.092 C 10.782 234.328,10.784 234.331,10.367 231.457 C 9.956 228.624,8.997 228.255,4.913 229.361 C 2.090 230.125,2.148 229.829,3.524 236.383 C 4.185 239.530,4.831 242.692,4.961 243.409 C 5.280 245.178,5.756 245.423,8.065 245.009 C 10.647 244.546,38.870 238.724,39.511 238.522 C 40.260 238.286,40.186 237.241,38.994 231.134 C 38.420 228.199,37.880 225.301,37.793 224.694 C 37.541 222.946,35.704 222.120,33.655 222.834 M366.590 225.482 C 358.381 228.049,357.069 242.108,364.723 245.486 C 370.262 247.929,387.775 250.350,390.727 249.080 C 396.953 246.401,398.834 235.546,393.866 230.966 C 391.995 229.242,390.784 228.800,384.581 227.580 C 372.824 225.266,368.786 224.796,366.590 225.482 M378.550 236.295 C 388.619 238.142,389.714 238.453,389.864 239.503 C 390.030 240.665,388.824 240.592,379.338 238.864 C 366.822 236.585,365.499 236.188,366.481 235.004 C 367.077 234.287,368.340 234.422,378.550 236.295 M38.818 241.785 C 38.715 241.888,14.536 249.148,9.144 250.694 C 8.179 250.971,7.385 251.387,7.275 251.673 C 7.085 252.169,9.445 260.638,9.774 260.638 C 10.582 260.638,42.886 250.792,43.240 250.437 C 43.686 249.991,42.544 244.926,41.411 242.328 C 41.146 241.718,39.276 241.327,38.818 241.785 M147.665 244.747 C 147.665 245.004,147.398 245.380,147.072 245.584 C 146.746 245.788,146.479 246.106,146.479 246.292 C 146.479 247.176,145.471 247.246,131.445 247.344 C 120.859 247.417,117.061 247.535,116.798 247.797 C 116.468 248.128,123.708 257.668,126.711 260.860 L 127.618 261.824 143.239 261.824 C 155.382 261.824,158.925 261.741,159.153 261.453 C 159.315 261.249,159.521 258.613,159.611 255.595 L 159.775 250.107 153.978 247.292 C 147.045 243.926,147.665 244.176,147.665 244.747 M357.333 248.657 C 356.700 249.461,355.226 253.887,355.226 254.983 C 355.226 255.706,355.538 255.859,362.288 258.450 C 364.683 259.369,367.271 260.437,368.041 260.824 C 368.810 261.211,369.744 261.532,370.116 261.538 C 370.489 261.543,371.127 261.739,371.534 261.972 C 372.607 262.585,371.387 262.588,369.836 261.976 C 368.054 261.273,355.484 258.525,354.494 258.622 C 353.312 258.738,351.892 261.330,352.026 263.125 L 352.113 264.278 356.560 266.785 C 359.007 268.164,362.409 270.007,364.122 270.882 C 368.155 272.942,369.041 273.623,366.460 272.679 C 365.381 272.285,364.078 271.745,363.564 271.479 C 362.309 270.830,351.106 266.568,350.655 266.568 C 350.136 266.568,347.349 273.932,347.726 274.309 C 347.955 274.538,371.866 284.048,378.843 286.685 C 379.820 287.053,380.164 287.075,380.510 286.788 C 381.340 286.098,384.948 276.445,384.610 275.814 C 384.325 275.282,375.393 270.138,374.008 269.709 C 373.655 269.599,373.216 269.328,373.031 269.105 C 372.699 268.704,374.724 268.973,375.459 269.428 C 376.295 269.945,385.891 271.860,386.367 271.605 C 387.091 271.217,390.567 262.277,390.452 261.100 C 390.363 260.205,390.335 260.191,376.723 254.859 C 369.222 251.920,362.357 249.149,361.469 248.701 C 359.385 247.651,358.134 247.638,357.333 248.657 M37.509 256.464 C 32.538 257.835,31.039 258.803,31.628 260.259 C 34.934 268.426,34.434 268.005,38.776 266.284 C 42.184 264.933,42.843 264.841,43.280 265.657 C 43.973 266.953,43.672 267.127,33.210 271.467 C 22.090 276.081,21.694 276.197,21.229 274.986 C 20.803 273.875,21.843 273.151,26.293 271.459 C 30.198 269.974,30.152 270.159,27.938 264.826 C 26.131 260.472,26.423 260.538,20.805 263.210 C 13.892 266.498,12.123 271.940,15.754 278.753 C 18.948 284.745,22.836 286.000,29.948 283.333 C 49.108 276.148,52.282 273.363,50.245 265.518 C 48.382 258.341,43.441 254.828,37.509 256.464 M249.757 262.651 C 247.972 265.507,245.078 269.005,242.129 271.873 C 240.722 273.242,239.607 274.394,239.652 274.433 C 240.192 274.908,249.348 277.835,250.292 277.835 C 250.412 277.835,250.553 274.600,250.607 270.645 C 250.692 264.366,250.773 263.329,251.245 262.464 C 251.754 261.531,251.747 260.623,251.232 260.650 C 251.105 260.656,250.441 261.557,249.757 262.651 M344.155 278.503 C 343.760 279.196,342.879 280.735,342.196 281.922 C 340.277 285.263,340.170 285.098,346.686 288.784 C 349.735 290.509,352.311 292.005,352.410 292.109 C 352.509 292.214,352.127 293.214,351.561 294.333 C 348.678 300.031,349.483 302.333,355.628 305.962 C 364.909 311.444,366.831 310.798,372.953 300.146 C 376.513 293.952,376.515 294.349,372.912 292.331 C 371.420 291.496,364.788 287.760,358.173 284.028 C 344.978 276.583,345.199 276.670,344.155 278.503 M50.510 278.174 C 48.449 278.532,44.629 280.718,42.279 282.885 C 40.215 284.787,39.734 286.295,39.313 292.191 C 38.856 298.577,37.967 300.366,35.248 300.370 C 33.215 300.372,33.510 299.087,35.890 297.571 C 38.075 296.179,38.082 296.324,35.656 292.206 C 33.334 288.265,33.454 288.310,30.470 290.258 C 25.791 293.312,25.087 296.575,27.869 302.298 C 31.091 308.924,35.487 310.774,41.164 307.892 C 46.172 305.351,47.668 302.892,48.080 296.528 C 48.415 291.349,48.662 290.313,49.897 288.907 C 51.450 287.137,53.928 286.441,54.547 287.599 C 55.045 288.529,54.630 289.020,52.007 290.605 C 50.173 291.712,49.518 292.269,49.518 292.721 C 49.518 293.321,53.268 300.074,53.601 300.074 C 54.883 300.074,60.063 296.124,61.097 294.358 C 64.769 288.084,57.492 276.960,50.510 278.174 M362.066 297.430 C 365.569 299.382,365.825 299.600,365.323 300.203 C 364.659 301.004,363.797 300.923,361.805 299.873 C 358.216 297.982,357.278 296.955,358.251 295.982 C 358.722 295.511,358.411 295.393,362.066 297.430 M332.065 299.620 C 324.297 302.479,320.965 312.150,326.068 317.024 C 327.957 318.827,347.645 335.071,347.845 334.990 C 348.425 334.755,353.432 328.288,353.439 327.764 C 353.445 327.296,350.977 325.111,343.736 319.172 C 330.809 308.570,330.899 308.656,331.891 307.832 C 332.474 307.348,333.029 307.760,344.353 317.077 C 350.034 321.751,354.845 325.574,355.046 325.574 C 355.638 325.574,356.244 324.977,358.504 322.165 C 359.683 320.697,360.833 319.281,361.060 319.017 C 361.637 318.347,340.949 301.141,337.880 299.739 C 336.475 299.098,333.643 299.040,332.065 299.620 M64.789 307.954 C 61.527 310.964,58.367 313.925,57.767 314.534 L 56.676 315.641 60.241 319.496 C 64.425 324.020,64.074 323.815,65.577 322.607 C 66.259 322.059,66.877 321.762,67.026 321.911 C 67.370 322.255,57.602 330.971,57.005 330.853 C 55.391 330.535,56.303 328.746,59.210 326.525 C 61.310 324.920,61.112 324.113,57.817 320.826 C 54.413 317.433,54.151 317.402,51.627 320.101 C 45.998 326.118,47.715 334.317,55.396 338.097 C 60.869 340.790,63.552 339.311,77.404 325.959 C 83.290 320.286,84.129 315.464,79.971 311.201 C 78.484 309.676,77.875 309.371,75.229 308.826 C 74.762 308.730,74.484 308.522,74.591 308.349 C 75.170 307.412,71.930 302.317,70.849 302.464 C 70.778 302.474,68.050 304.944,64.789 307.954 M74.070 314.927 C 74.166 315.751,69.525 320.534,68.629 320.534 C 68.117 320.534,67.774 319.307,68.016 318.343 C 68.577 316.108,73.861 313.126,74.070 314.927 M312.083 319.654 C 307.451 323.822,306.780 322.179,318.177 334.578 L 326.861 344.026 325.328 345.504 C 323.041 347.709,323.127 348.498,325.945 351.132 C 327.128 352.238,328.185 353.144,328.296 353.146 C 328.558 353.152,339.917 342.794,341.364 341.230 C 342.977 339.486,342.883 338.707,340.793 336.516 C 338.474 334.085,338.118 334.045,335.918 335.958 C 334.412 337.269,334.066 337.451,333.743 337.105 C 333.532 336.879,329.314 332.291,324.369 326.909 C 319.425 321.527,315.305 317.093,315.214 317.055 C 315.123 317.017,313.714 318.186,312.083 319.654 M86.817 321.063 C 86.232 321.695,66.253 346.023,65.182 347.408 C 64.897 347.776,70.408 352.557,71.116 352.557 C 71.555 352.557,71.518 352.598,76.203 346.949 C 78.598 344.061,79.445 343.208,79.293 343.835 C 78.924 345.358,77.387 349.378,76.335 351.571 C 75.177 353.986,75.039 355.543,75.873 356.808 C 76.548 357.831,80.868 360.945,81.269 360.697 C 81.427 360.599,85.301 355.959,89.877 350.386 C 94.453 344.812,98.887 339.462,99.729 338.497 C 101.847 336.070,103.188 334.161,103.188 333.574 C 103.188 333.040,98.034 328.528,97.457 328.557 C 97.096 328.574,90.101 336.883,89.161 338.411 C 88.867 338.890,88.549 339.204,88.454 339.109 C 88.359 339.014,88.485 338.626,88.733 338.247 C 89.550 336.999,93.699 326.660,93.699 325.871 C 93.699 325.256,93.146 324.648,90.985 322.890 C 87.472 320.031,87.686 320.125,86.817 321.063 M296.219 332.857 C 292.713 335.382,289.802 337.572,289.750 337.724 C 289.637 338.057,293.575 343.662,293.923 343.662 C 294.057 343.662,295.341 342.872,296.777 341.907 L 299.387 340.152 301.397 342.980 C 302.502 344.535,303.285 345.892,303.136 345.995 C 298.757 349.035,298.758 349.032,300.881 352.023 C 302.965 354.959,303.327 355.077,305.282 353.461 C 307.483 351.643,307.889 351.765,309.968 354.866 C 311.192 356.690,311.160 356.890,309.485 357.950 C 308.794 358.387,307.849 359.141,307.385 359.626 L 306.541 360.506 308.018 362.685 C 308.830 363.883,309.837 365.180,310.255 365.567 L 311.015 366.272 317.244 361.861 C 320.670 359.435,323.479 357.353,323.486 357.234 C 323.502 356.963,303.065 328.414,302.793 328.329 C 302.684 328.295,299.726 330.332,296.219 332.857 M105.837 336.323 C 104.540 337.846,86.545 364.454,86.634 364.716 C 86.788 365.170,93.501 369.749,94.018 369.752 C 94.744 369.757,95.124 369.241,104.551 355.459 C 114.364 341.113,114.146 341.454,113.951 340.709 C 113.809 340.164,107.389 335.656,106.756 335.656 C 106.563 335.656,106.149 335.956,105.837 336.323 M283.907 341.020 C 280.557 342.879,279.615 343.542,279.615 344.042 C 279.615 344.349,285.286 354.546,286.191 355.865 C 286.902 356.902,286.873 357.513,286.102 357.758 C 285.132 358.066,284.430 357.143,280.794 350.779 C 278.977 347.599,277.448 344.955,277.397 344.904 C 277.274 344.780,269.544 349.106,269.548 349.296 C 269.550 349.377,271.116 352.169,273.027 355.498 C 276.955 362.343,277.748 363.225,280.188 363.460 L 281.675 363.603 281.090 364.347 C 278.187 368.037,284.967 377.832,290.128 377.404 C 293.069 377.160,304.818 370.921,304.818 369.603 C 304.818 368.948,289.195 341.047,288.135 339.809 C 287.454 339.013,287.602 338.970,283.907 341.020 M112.834 350.606 C 110.371 355.673,108.811 359.220,108.920 359.504 C 109.149 360.099,117.240 364.122,118.209 364.122 C 119.612 364.122,121.184 359.831,120.186 358.727 C 119.366 357.822,122.314 352.261,123.613 352.261 C 125.429 352.261,125.496 352.061,119.701 363.842 C 115.076 373.245,114.549 374.120,113.711 373.798 C 112.807 373.451,112.918 372.643,114.274 369.702 C 115.916 366.137,116.041 366.411,111.879 364.419 C 107.064 362.113,106.593 362.258,105.067 366.515 C 102.632 373.307,106.060 378.899,113.885 380.904 C 120.706 382.651,123.387 379.724,131.981 361.143 C 135.774 352.943,131.877 345.591,124.197 346.460 C 122.527 346.649,122.461 346.631,122.457 345.975 C 122.454 345.600,122.354 345.143,122.234 344.960 C 122.054 344.684,117.368 342.179,117.032 342.179 C 116.975 342.179,115.085 345.971,112.834 350.606 M139.114 353.669 C 138.966 353.955,137.948 356.924,136.852 360.267 C 134.620 367.075,134.516 368.231,135.941 370.385 L 136.688 371.513 135.544 371.821 C 130.694 373.127,128.492 383.522,132.295 387.158 C 133.909 388.701,146.330 393.456,147.651 393.036 C 148.341 392.817,159.125 360.343,158.722 359.700 C 158.386 359.166,152.093 357.010,150.860 357.007 C 149.807 357.005,149.675 357.284,147.224 364.715 C 145.046 371.316,145.032 371.347,144.302 371.067 C 143.208 370.647,143.386 369.514,145.608 362.750 C 148.131 355.069,148.307 355.877,143.774 354.326 C 139.934 353.012,139.488 352.949,139.114 353.669 M254.559 356.222 C 252.409 356.759,249.788 358.252,247.650 360.159 L 245.781 361.824 245.048 361.136 C 244.183 360.323,242.881 360.496,238.027 362.068 C 233.934 363.394,233.996 363.107,237.123 366.263 L 239.851 369.014 238.976 369.982 C 237.850 371.230,237.828 372.643,238.885 375.754 C 239.848 378.588,240.098 378.627,242.273 376.280 C 244.281 374.113,244.639 374.088,246.749 375.969 C 249.017 377.991,249.281 378.721,248.621 381.157 C 246.118 390.404,255.048 396.657,263.988 391.918 C 271.398 387.990,271.694 379.107,264.578 374.237 L 263.625 373.586 264.695 372.189 C 270.022 365.237,262.967 354.123,254.559 356.222 M161.207 360.908 C 160.662 361.765,159.923 367.012,160.297 367.379 C 160.443 367.524,161.675 367.833,163.034 368.066 C 166.384 368.642,166.452 368.730,166.049 372.004 C 165.631 375.396,165.209 375.918,163.273 375.431 C 161.259 374.923,159.894 374.992,159.697 375.612 C 158.240 380.206,158.642 381.958,161.276 382.476 C 163.714 382.956,164.021 383.316,163.782 385.418 C 163.402 388.762,163.080 389.027,160.251 388.316 C 157.928 387.733,157.301 387.963,156.881 389.553 C 156.421 391.294,156.151 395.151,156.476 395.352 C 157.381 395.911,170.959 397.886,171.332 397.512 C 171.572 397.273,172.767 390.772,174.371 380.990 C 175.825 372.120,177.080 364.584,177.159 364.244 C 177.470 362.913,176.838 362.652,170.635 361.542 C 162.473 360.082,161.764 360.034,161.207 360.908 M219.274 363.150 C 210.431 364.165,211.097 363.666,211.695 368.830 C 212.004 371.499,212.149 371.610,215.047 371.380 C 218.638 371.095,218.879 371.327,219.254 375.442 C 219.473 377.853,219.015 378.354,216.596 378.354 C 214.012 378.354,213.752 378.843,214.230 382.802 C 214.605 385.904,215.116 386.260,218.035 385.449 C 219.951 384.917,220.483 385.507,220.740 388.452 C 220.994 391.371,220.988 391.379,218.235 391.610 C 215.400 391.847,214.809 392.364,215.123 394.328 C 215.243 395.083,215.430 396.368,215.538 397.183 C 215.884 399.810,215.366 399.721,224.093 398.657 C 230.898 397.828,231.162 397.776,231.379 397.211 C 231.462 396.995,230.675 389.427,229.629 380.395 C 228.584 371.363,227.728 363.816,227.726 363.624 C 227.723 363.096,226.857 362.339,226.295 362.372 C 226.021 362.388,222.861 362.738,219.274 363.150 M291.844 365.817 C 293.550 368.757,293.648 369.459,292.352 369.459 C 290.930 369.459,288.394 364.853,289.095 363.544 C 289.664 362.480,290.131 362.866,291.844 365.817 M180.612 364.526 C 179.908 365.374,179.013 398.849,179.677 399.514 C 180.443 400.282,191.151 400.140,191.637 399.356 C 192.031 398.722,193.066 392.486,193.470 388.323 C 193.563 387.363,193.765 386.363,193.920 386.099 C 194.220 385.584,194.219 385.575,194.397 389.029 C 194.575 392.494,195.630 399.463,196.032 399.840 C 196.634 400.403,207.372 400.734,207.813 400.202 C 208.015 399.959,208.239 395.071,208.435 386.642 C 208.603 379.393,208.793 371.768,208.857 369.697 C 209.016 364.552,209.160 364.715,204.448 364.715 C 202.232 364.715,200.701 364.837,200.586 365.022 C 200.482 365.191,200.334 368.427,200.257 372.213 C 200.181 375.998,200.039 379.563,199.941 380.133 L 199.763 381.171 199.549 380.213 C 199.432 379.686,198.956 376.154,198.491 372.364 C 197.481 364.131,197.634 364.418,194.254 364.418 C 191.231 364.418,191.426 364.065,190.211 371.720 C 188.502 382.482,188.297 382.555,188.512 372.320 C 188.632 366.626,188.583 364.749,188.312 364.582 C 187.474 364.063,181.034 364.017,180.612 364.526 M254.929 364.577 C 256.110 365.404,256.578 369.001,255.584 369.615 C 255.026 369.960,251.121 366.144,251.528 365.651 C 252.602 364.349,253.981 363.913,254.929 364.577 M142.921 377.692 C 142.921 378.204,141.009 383.289,140.682 383.649 C 140.087 384.303,138.999 383.039,139.247 381.982 C 140.084 378.415,141.261 376.597,142.355 377.183 C 142.666 377.349,142.921 377.578,142.921 377.692 M259.125 382.521 C 260.936 384.333,261.047 386.696,259.329 386.901 C 257.749 387.089,256.713 384.899,257.360 382.740 C 257.767 381.381,257.960 381.357,259.125 382.521 " stroke="none" fill="#1a3c83" fill-rule="evenodd"></path><path id="path3" d="M145.356 159.451 C 145.321 164.385,145.393 168.421,145.515 168.421 C 145.638 168.422,145.703 165.786,145.662 162.565 C 145.519 151.511,145.419 150.493,145.356 159.451 M214.787 192.735 C 214.787 194.448,214.836 195.148,214.896 194.292 C 214.956 193.436,214.956 192.035,214.896 191.179 C 214.836 190.322,214.787 191.023,214.787 192.735 M147.497 217.939 C 147.497 221.935,147.539 223.569,147.590 221.572 C 147.641 219.574,147.641 216.305,147.590 214.307 C 147.539 212.309,147.497 213.944,147.497 217.939 M282.396 222.239 C 282.397 224.196,282.445 224.958,282.503 223.932 C 282.561 222.906,282.561 221.305,282.502 220.374 C 282.443 219.443,282.396 220.282,282.396 222.239 M215.091 223.721 C 215.092 226.004,215.138 226.899,215.194 225.710 C 215.251 224.520,215.251 222.652,215.194 221.559 C 215.137 220.465,215.091 221.438,215.091 223.721 M250.641 269.385 C 250.643 270.200,250.701 270.499,250.769 270.048 C 250.837 269.597,250.835 268.930,250.765 268.565 C 250.694 268.201,250.639 268.569,250.641 269.385 M250.648 274.426 C 250.650 275.404,250.705 275.769,250.771 275.236 C 250.837 274.703,250.835 273.902,250.768 273.457 C 250.700 273.011,250.646 273.447,250.648 274.426 M258.043 279.522 C 258.328 279.597,258.795 279.597,259.081 279.522 C 259.366 279.448,259.133 279.387,258.562 279.387 C 257.991 279.387,257.758 279.448,258.043 279.522 M265.906 279.533 C 266.439 279.599,267.240 279.598,267.685 279.530 C 268.131 279.462,267.695 279.408,266.716 279.410 C 265.738 279.412,265.373 279.467,265.906 279.533 " stroke="none" fill="#74744e" fill-rule="evenodd"></path><path id="path4" d="M214.450 180.578 C 214.450 181.149,214.511 181.383,214.585 181.097 C 214.660 180.812,214.660 180.345,214.585 180.059 C 214.511 179.774,214.450 180.007,214.450 180.578 M214.793 199.407 C 214.793 201.527,214.840 202.355,214.898 201.248 C 214.955 200.140,214.954 198.406,214.897 197.393 C 214.839 196.381,214.792 197.287,214.793 199.407 M147.482 207.413 C 147.482 209.370,147.530 210.132,147.588 209.106 C 147.646 208.081,147.646 206.479,147.587 205.548 C 147.529 204.617,147.481 205.456,147.482 207.413 M215.086 230.986 C 215.086 232.861,215.134 233.629,215.193 232.691 C 215.252 231.753,215.252 230.219,215.193 229.281 C 215.134 228.343,215.086 229.110,215.086 230.986 M282.113 260.489 C 282.113 264.077,282.156 265.504,282.208 263.660 C 282.260 261.817,282.260 258.881,282.208 257.137 C 282.155 255.393,282.113 256.901,282.113 260.489 M250.641 266.716 C 250.643 267.532,250.701 267.830,250.769 267.379 C 250.837 266.928,250.835 266.261,250.765 265.897 C 250.694 265.532,250.639 265.901,250.641 266.716 M281.759 268.347 C 281.759 268.918,281.820 269.151,281.895 268.866 C 281.969 268.580,281.969 268.113,281.895 267.828 C 281.820 267.543,281.759 267.776,281.759 268.347 M250.631 271.757 C 250.634 272.409,250.695 272.641,250.766 272.272 C 250.837 271.903,250.834 271.370,250.760 271.086 C 250.685 270.803,250.627 271.105,250.631 271.757 M273.476 278.353 C 274.911 278.407,277.180 278.407,278.517 278.352 C 279.855 278.298,278.681 278.253,275.908 278.253 C 273.136 278.254,272.041 278.298,273.476 278.353 M252.563 279.533 C 253.096 279.599,253.896 279.598,254.342 279.530 C 254.787 279.462,254.351 279.408,253.373 279.410 C 252.394 279.412,252.030 279.467,252.563 279.533 " stroke="none" fill="#92843e" fill-rule="evenodd"></path><path id="path5" d="M291.253 289.011 C 291.538 289.086,292.005 289.086,292.291 289.011 C 292.576 288.936,292.342 288.875,291.772 288.875 C 291.201 288.875,290.967 288.936,291.253 289.011 " stroke="none" fill="#0c7a54" fill-rule="evenodd"></path></g></svg>